<?xml version="1.0" standalone="no"?>
<!DOCTYPE svg PUBLIC "-//W3C//DTD SVG 1.1//EN" "http://www.w3.org/Graphics/SVG/1.1/DTD/svg11.dtd" >
<svg xmlns="http://www.w3.org/2000/svg" xmlns:xlink="http://www.w3.org/1999/xlink" version="1.1">
<metadata>
Created by FontForge 20170731 at Thu Feb  9 11:30:45 2017
 By Aleksey,,,
Copyright by phitradesign (c) 2016 
</metadata>
<defs>
<font id="LEIXO-DEMO" horiz-adv-x="680" >
  <font-face 
    font-family="LEIXO DEMO"
    font-weight="400"
    font-stretch="normal"
    units-per-em="1000"
    panose-1="0 0 5 0 0 0 0 0 0 0"
    ascent="800"
    descent="-200"
    x-height="699"
    cap-height="701"
    bbox="53 -200 1202 875"
    underline-thickness="50"
    underline-position="-150"
    unicode-range="U+0020-2212"
  />
<missing-glyph horiz-adv-x="500" 
d="M410 800v-1000h-317v1000h317zM333 733h-165v-33h65v-37h-66v-33h166v33h-66v37h66v33zM267 604h-100v-104h166v34h-66v70zM233 570v-36h-33v36h33zM333 473h-166v-33h66v-37h-66v-33h100v70h66v33zM333 413h-33v-66h-133v-34h166v100zM333 291h-100v-56h34v23h33v-47
h-100v80h-33v-113h166v113zM333 118h-166v-113h166v113zM300 85v-47h-100v47h100zM333 -18h-166v-33h70l-70 -47v-33h166v33h-102l70 47h32v33z" />
    <glyph glyph-name="t_h_e.liga" unicode="theliga" horiz-adv-x="1282" 
d="M86 666q6 6 14 6h842q8 0 14 -6t6 -14v-20q0 -8 -6 -14t-14 -6h-842q-8 0 -14 6t-6 14v20q0 8 6 14zM1068 666q6 6 14 6h100q8 0 14 -6t6 -14v-20q0 -8 -6 -14t-14 -6h-100q-8 0 -14 6t-6 14v20q0 8 6 14zM426 164l66 373q3 8 9 8h59q3 0 5 -2.5t1 -5.5l-25 -145v-3
q0 -4 3 -6.5t7 -2.5h106q5 0 9.5 3.5t5.5 8.5l25 145q1 3 3.5 5.5t5.5 2.5h59q3 0 5 -2t1 -6l-66 -373q-2 -8 -9 -8h-58q-3 0 -5 2.5t-2 5.5l24 128q0 6 -3.5 9.5t-8.5 3.5h-105q-5 0 -9 -3.5t-6 -8.5l-23 -129q0 -3 -2.5 -5.5t-6.5 -2.5h-58q-7 0 -7 8zM186 158q-2 2 -1 5
l53 301v2q0 5 -3 8t-8 3h-94q-2 0 -4 2.5t-1 4.5l9 54q2 6 8 6h293q4 0 6 -2t1 -5l-9 -52q-1 -3 -3.5 -5.5t-5.5 -2.5h-92q-6 0 -10.5 -4t-5.5 -9l-54 -301q0 -7 -7 -7h-67q-3 0 -5 2zM782.5 160q-2.5 3 -1.5 7l64 367q1 4 4.5 7t7.5 3h249q4 0 6.5 -3t1.5 -7l-8 -47
q-1 -4 -4 -7t-8 -3h-179q-4 0 -7.5 -3t-4.5 -7l-14 -82l-1 -5q0 -3 3 -4t9 -1h139q4 0 6.5 -2.5t1.5 -6.5l-9 -47q-2 -9 -10 -9h-140q-7 0 -11 -4.5t-4 -8.5l-10 -59v-5q0 -8 13 -8h177q4 0 7 -3t2 -8l-8 -47q-1 -4 -4.5 -7t-7.5 -3h-253q-4 0 -6.5 3zM86 91q6 6 14 6h1082
q8 0 14 -6t6 -14v-20q0 -8 -6 -14t-14 -6h-1082q-8 0 -14 6t-6 14v20q0 8 6 14z" />
    <glyph glyph-name=".notdef" horiz-adv-x="500" 
d="M410 800v-1000h-317v1000h317zM333 733h-165v-33h65v-37h-66v-33h166v33h-66v37h66v33zM267 604h-100v-104h166v34h-66v70zM233 570v-36h-33v36h33zM333 473h-166v-33h66v-37h-66v-33h100v70h66v33zM333 413h-33v-66h-133v-34h166v100zM333 291h-100v-56h34v23h33v-47
h-100v80h-33v-113h166v113zM333 118h-166v-113h166v113zM300 85v-47h-100v47h100zM333 -18h-166v-33h70l-70 -47v-33h166v33h-102l70 47h32v33z" />
    <glyph glyph-name=".null" horiz-adv-x="0" 
 />
    <glyph glyph-name="nonmarkingreturn" horiz-adv-x="333" 
 />
    <glyph glyph-name="space" unicode=" " horiz-adv-x="430" 
 />
    <glyph glyph-name="exclam" unicode="!" horiz-adv-x="335" 
d="M113 201q-6 6 -7 15l-8 458q0 9 6 15t15 6h97q9 0 15 -6t6 -15l-8 -458q-1 -9 -7 -15t-15 -6h-79q-9 0 -15 6zM113 23q-23 23 -23 54q0 32 22.5 55t54.5 23t55 -23t23 -55t-23 -54.5t-55 -22.5q-31 0 -54 23z" />
    <glyph glyph-name="numbersign" unicode="#" horiz-adv-x="752" 
d="M166.5 56.5q-4.5 5.5 -2.5 13.5l32 135l1 5q0 6 -4.5 10t-11.5 4h-86q-8 0 -12 5.5t-2 13.5l16 63q2 8 9.5 13.5t15.5 5.5h83q8 0 15 5.5t9 13.5l6 26l1 5q0 6 -4.5 10t-11.5 4h-85q-8 0 -12.5 5.5t-2.5 13.5l17 63q2 8 9.5 13.5t14.5 5.5h83q8 0 15.5 5.5t8.5 13.5
l32 133q2 8 9 13.5t15 5.5h71q8 0 12.5 -5.5t2.5 -13.5l-32 -133v-4q0 -15 15 -15h30q8 0 15 5.5t9 13.5l32 133q1 7 8 13t15 6h72q7 0 12 -5.5t3 -13.5l-32 -133l-1 -5q0 -6 4.5 -10t11.5 -4h85q8 0 12.5 -5.5t2.5 -13.5l-17 -62q-2 -8 -9.5 -13.5t-14.5 -5.5h-83
q-8 0 -15 -5.5t-9 -13.5l-7 -27v-4q0 -7 4 -11t11 -4h86q8 0 12 -6t2 -13l-16 -62q-2 -8 -9.5 -13.5t-15.5 -5.5h-82q-8 0 -15 -5.5t-9 -13.5l-33 -136q-2 -8 -9 -13.5t-15 -5.5h-70q-8 0 -12.5 5.5t-2.5 13.5l32 136l1 5q0 6 -4.5 10t-11.5 4h-30q-8 0 -15 -5.5t-9 -13.5
l-33 -136q-2 -8 -9 -13.5t-15 -5.5h-70q-8 0 -12.5 5.5zM384 325q8 0 15 5.5t9 13.5l6 27l1 5q0 6 -4.5 10t-11.5 4h-30q-8 0 -15 -5.5t-9 -13.5l-6 -27l-1 -5q0 -6 4.5 -10t11.5 -4h30z" />
    <glyph glyph-name="dollar" unicode="$" horiz-adv-x="649" 
d="M270.5 -66.5q-6.5 6.5 -6.5 16.5v44q0 12 -3.5 24t-2.5 18q3 16 8.5 41t9.5 43q2 9 7 12.5t15 3.5l44 -1q43 0 67.5 15.5t24.5 40.5q0 23 -18 45q-10 14 -33.5 22t-60.5 15l-32 8q-64 19 -104.5 45t-69.5 76l-2 4q-20 35 -23 75q-2 60 39 110t113 74q21 6 21 27v49
q0 10 6.5 16.5t15.5 6.5h58q9 0 16 -6.5t7 -16.5v-40q0 -12 6 -16.5t23 -6.5q53 -7 93 -27q40 -21 58 -37q13 -10 13 -24q0 -4 -2 -10q-10 -22 -44 -66q-6 -7 -18 -7q-9 0 -17 4q-33 16 -64 26q-39 11 -66 11q-26 0 -61 -12q-20 -9 -31 -25t-11 -32q0 -22 18 -37
q17 -12 37.5 -20t55.5 -19l25 -8q57 -21 96 -38.5t59 -39.5q27 -30 34.5 -59.5t7.5 -62.5q0 -76 -56 -123t-139 -59q-17 -3 -17 -16v-47q0 -9 -6.5 -16t-16.5 -7h-58q-9 0 -15.5 6.5zM79 86q-9 9 -9 20q0 6 4 14l32 57q6 11 18 11q7 0 15 -5q25 -13 46 -20q4 -2 6.5 -8.5
t0.5 -11.5q-3 -11 -30 -83q-3 -7 -10 -9.5t-13 0.5q-42 17 -60 35z" />
    <glyph glyph-name="percent" unicode="%" horiz-adv-x="712" 
d="M80 17q0 5 3 9l426 648q6 9 12.5 13t24.5 4h74q12 0 12 -9q0 -4 -3 -9l-427 -647q-4 -8 -14 -12.5t-23 -4.5h-73q-12 0 -12 8zM127 521q-6 18 -6 38q0 42 26 68q20 19 37.5 27.5t38.5 9.5q30 0 51 -10q13 -6 26.5 -18.5t21.5 -25.5q13 -23 13 -51q0 -36 -20 -64
q-15 -22 -37 -34q-25 -11 -50 -11q-24 0 -43 9q-39 18 -58 62zM261 542q3 8 3 14q0 22 -21 33q-6 3 -14 3q-18 0 -28 -13q-8 -11 -8 -23q0 -16 12 -26q13 -8 24 -8q8 0 15 4q10 4 17 16zM389 101q-6 20 -6 38q0 42 25 67q21 20 38.5 28.5t38.5 9.5q30 0 50 -9q13 -5 27 -18
t22 -27q12 -22 12 -50q0 -36 -19 -65q-15 -23 -37 -34q-25 -11 -51 -11q-22 0 -42 9q-39 18 -58 62zM523 122q3 8 3 14q0 22 -21 33q-7 3 -15 3q-17 0 -27 -13q-8 -10 -8 -22q0 -17 12 -27q13 -8 24 -8q8 0 15 4q11 6 17 16z" />
    <glyph glyph-name="quotesingle" unicode="'" horiz-adv-x="197" 
d="M65.5 624.5q-5.5 5.5 -5.5 12.5v111q0 7 6 12.5t13 5.5h41q7 0 12 -5.5t5 -12.5v-111q0 -7 -6 -12.5t-13 -5.5h-39q-8 0 -13.5 5.5z" />
    <glyph glyph-name="parenleft" unicode="(" horiz-adv-x="305" 
d="M137 24.5q-9 6.5 -12 15.5l-11 33q-6 18 -13.5 49.5t-10.5 61.5q-3 36 -5 67.5t-3 42.5q-2 38 -2 70q0 30 1 41q1 9 3 39.5t6 70.5q4 34 13 68.5t12 44.5l10 30q3 10 12 16.5t19 6.5h50q10 0 15 -7t3 -16l-8 -30l-6 -23q-20 -80 -26.5 -115t-7.5 -85q0 -49 2 -111
q1 -10 3.5 -40.5t6.5 -69.5q4 -33 13 -68t12 -45l10 -31l1 -5q0 -8 -5 -12.5t-13 -4.5h-50q-10 0 -19 6.5z" />
    <glyph glyph-name="parenright" unicode=")" horiz-adv-x="305" 
d="M83 24.5q-5 6.5 -2 16.5l7 30l15 58q16 62 20.5 92.5t4.5 99.5q0 39 -2 83q0 10 -2.5 44t-6.5 66t-13.5 67.5t-12.5 45.5q-2 11 -5 19.5t-4 11.5q-1 2 -1 7q0 7 4.5 11.5t12.5 4.5h51q10 0 19 -6.5t12 -16.5l10 -33q4 -11 12.5 -49t11.5 -62l9 -110q2 -36 2 -65l-1 -46
q-1 -9 -3.5 -39t-6.5 -71q-4 -34 -13 -68t-12 -44t-6 -19l-4 -12q-2 -9 -11 -15.5t-19 -6.5h-51q-10 0 -15 6.5z" />
    <glyph glyph-name="comma" unicode="," horiz-adv-x="286" 
d="M98 -140q-2 0 -3.5 3.5t-0.5 7.5q0 15 5 68v3q0 10 -10 22q-28 28 -28 61q0 34 24 58t58 24t58 -24t24 -58q0 -33 -23 -56l-95 -103q-6 -6 -9 -6z" />
    <glyph glyph-name="slash" unicode="/" horiz-adv-x="575" 
d="M68 24.5q-3 4.5 0 11.5l293 630q3 7 11 12t15 5h101q7 0 10.5 -5t0.5 -12l-293 -630q-3 -7 -10.5 -11.5t-15.5 -4.5h-101q-8 0 -11 4.5z" />
    <glyph glyph-name="colon" unicode=":" horiz-adv-x="272" 
d="M89.5 319.5q-19.5 19.5 -19.5 47.5q0 27 19.5 46.5t46.5 19.5q28 0 47 -19.5t19 -46.5q0 -29 -19 -48t-47 -19q-27 0 -46.5 19.5zM89.5 71.5q-19.5 19.5 -19.5 46.5q0 28 19.5 47.5t46.5 19.5q28 0 47 -19.5t19 -47.5q0 -27 -19 -46.5t-47 -19.5q-27 0 -46.5 19.5z" />
    <glyph glyph-name="semicolon" unicode=";" horiz-adv-x="249" 
d="M79 174.5q-19 18.5 -19 44.5t19 45.5t45 19.5q27 0 46 -19.5t19 -45.5t-19 -44.5t-46 -18.5q-26 0 -45 18.5zM90 -108q-4 0 -4 9l4 53v2q0 5 -3 10.5t-6 7.5q-21 18 -21 48q0 26 19 44.5t45 18.5q27 0 46 -18.5t19 -44.5q0 -25 -17 -45l-75 -80q-5 -5 -7 -5z" />
    <glyph glyph-name="question" unicode="?" horiz-adv-x="584" 
d="M217 173v229q0 13 17 19l16 5l31 9q25 6 43 12.5t31 17.5q10 9 15 22t5 27q0 17 -7.5 31t-23.5 22q-18 9 -42 9q-54 0 -142 -43q-10 -5 -17 -5q-12 0 -20 9q-34 41 -43 64q-2 4 -2 11q0 15 13 26q34 29 97 49t116 20q95 -5 143 -44t64 -114q5 -23 5 -41q0 -62 -38.5 -114
t-102.5 -72q-9 -4 -21 -7.5t-16.5 -8t-4.5 -14.5v-116q0 -15 -14 -15h-89q-13 0 -13 12zM226.5 16q-20.5 21 -20.5 50q0 30 20.5 51t50.5 21q29 0 50 -21t21 -51q0 -29 -21 -50t-50 -21q-30 0 -50.5 21z" />
    <glyph glyph-name="A" unicode="A" horiz-adv-x="628" 
d="M439 4.5q-6 4.5 -8 10.5l-50 186q-3 9 -11 15t-17 6h-151q-7 0 -11.5 4.5t-4.5 10.5v77q0 6 4.5 11t11.5 5h120q9 0 14.5 6.5t2.5 15.5l-56 204q-2 8 -10 14t-17 6h-7q-8 0 -16 -6t-10 -14l-37 -134q-2 -6 -7.5 -9t-12.5 -1l-94 23q-6 1 -9.5 7t-1.5 12l63 231
q2 6 8.5 11t12.5 5h215q6 0 13 -4.5t9 -10.5l184 -672v-2q0 -12 -12 -12h-102q-7 0 -13 4.5z" />
    <glyph glyph-name="B" unicode="B" horiz-adv-x="642" 
d="M190 7v103q0 7 7 7h165q36 0 60.5 26t24.5 62t-25 60.5t-60 24.5h-126q-10 0 -10 10v104q0 2 2 4.5t5 2.5h56q34 0 58.5 25t24.5 59q0 35 -25 60t-60 25h-72q-14 0 -24.5 -10t-10.5 -24v-26q0 -3 -2.5 -5t-4.5 -2h-87q-8 0 -8 7v173q0 7 8 7h201q56 0 103 -27.5
t74.5 -74.5t27.5 -103q0 -58 -32 -109q50 -28 79 -76.5t29 -104.5t-27.5 -103t-75 -74.5t-103.5 -27.5h-165q-7 0 -7 7z" />
    <glyph glyph-name="C" unicode="C" horiz-adv-x="754" 
d="M241 39q-81 48 -128.5 130.5t-47.5 180.5q0 97 47.5 179.5t128.5 131t177 48.5q77 0 144.5 -31t116.5 -85q4 -4 4 -10q0 -7 -5 -11l-72 -62q-5 -5 -11 -5t-10 5q-32 35 -75.5 54.5t-91.5 19.5q-62 0 -114.5 -31.5t-83.5 -85.5t-31 -117t31 -117t83.5 -85.5t114.5 -31.5
q46 0 87 17.5t73 49.5q9 8 19 8q9 0 14 -5l19 -16l40 -36q10 -7 10 -19q0 -7 -5 -12q-49 -53 -115.5 -82.5t-141.5 -29.5q-96 0 -177 48z" />
    <glyph glyph-name="D" unicode="D" horiz-adv-x="739" 
d="M212.5 8q-6.5 6 -6.5 15v87q0 10 6.5 16t15.5 6h81q60 0 110 29.5t79.5 79.5t29.5 110t-29.5 110t-79.5 79.5t-110 29.5h-81q-5 0 -8.5 -3.5t-3.5 -8.5v-61q0 -9 -6.5 -15t-15.5 -6h-87q-8 0 -14.5 6.5t-6.5 14.5v181q0 9 6.5 15.5t14.5 6.5h202q95 0 175 -47t127 -127
t47 -175t-47 -175t-127 -127t-175 -47h-81q-9 0 -15.5 6z" />
    <glyph glyph-name="E" unicode="E" horiz-adv-x="660" 
d="M84.5 582.5q-5.5 5.5 -5.5 13.5v86q0 8 5.5 13t12.5 5h464q8 0 13.5 -5.5t5.5 -12.5v-86q0 -7 -5.5 -13t-13.5 -6h-464q-7 0 -12.5 5.5zM84.5 5.5q-5.5 5.5 -5.5 12.5v462q0 8 5.5 13t12.5 5h85q8 0 13 -5t5 -13v-72q0 -19 26 -19h252q7 0 12 -4.5t5 -11.5v-86
q0 -7 -5 -11.5t-12 -4.5h-255q-23 0 -23 -21v-109q0 -7 6 -13t13 -6h344q8 0 13 -5t5 -13v-86q0 -7 -5 -12.5t-13 -5.5h-466q-7 0 -12.5 5.5z" />
    <glyph glyph-name="F" unicode="F" horiz-adv-x="747" 
d="M85.5 584.5q-5.5 5.5 -5.5 12.5v85q0 8 5.5 13.5t12.5 5.5h561q7 0 12.5 -5.5t5.5 -13.5v-85q0 -7 -5 -12.5t-13 -5.5h-561q-7 0 -12.5 5.5zM316.5 5.5q-5.5 5.5 -5.5 12.5v372q0 8 5.5 13t12.5 5h237q8 0 13.5 -5.5t5.5 -12.5v-94q0 -8 -5.5 -13.5t-13.5 -5.5h-101
q-7 0 -12.5 -5t-5.5 -13v-241q0 -7 -5.5 -12.5t-13.5 -5.5h-99q-7 0 -12.5 5.5z" />
    <glyph glyph-name="G" unicode="G" horiz-adv-x="816" 
d="M235.5 35.5q-83.5 48.5 -132 132t-48.5 182.5t48.5 182.5t132 132t182.5 48.5q23 0 45 -3q9 -1 14 -8t3 -16l-16 -87q-3 -16 -20 -16l-26 1q-63 0 -117 -31.5t-85.5 -85.5t-31.5 -117t31.5 -117t85.5 -85.5t117 -31.5q73 0 128 41.5t81 110.5h-129q-8 0 -14 6t-6 14v73
q0 8 6 14t14 6h213q24 0 37 -8t13 -23q0 -100 -44 -183t-122.5 -131.5t-176.5 -48.5q-99 0 -182.5 48.5z" />
    <glyph glyph-name="H" unicode="H" horiz-adv-x="670" 
d="M84.5 225.5q-4.5 4.5 -4.5 10.5v450q0 6 4.5 10.5t10.5 4.5h104q6 0 10.5 -4.5t4.5 -10.5v-450q0 -6 -4.5 -10.5t-10.5 -4.5h-104q-6 0 -10.5 4.5zM457.5 5.5q-5.5 5.5 -5.5 12.5v241q0 8 -5 13t-13 5h-125q-7 0 -12.5 5.5t-5.5 12.5v85q0 8 5.5 13t12.5 5h125
q8 0 13 5.5t5 12.5v267q0 7 5.5 12.5t12.5 5.5h102q7 0 12.5 -5.5t5.5 -12.5v-665q0 -7 -5 -12.5t-13 -5.5h-102q-7 0 -12.5 5.5z" />
    <glyph glyph-name="I" unicode="I" horiz-adv-x="357" 
d="M115.5 5.5q-5.5 5.5 -5.5 12.5v664q0 8 6 13.5t13 5.5h100q7 0 12.5 -5.5t5.5 -13.5v-664q0 -7 -5 -12.5t-13 -5.5h-100q-8 0 -13.5 5.5z" />
    <glyph glyph-name="J" unicode="J" horiz-adv-x="592" 
d="M165.5 25q-53.5 32 -83.5 78q-3 5 -3 11q0 5 3 10.5t7 7.5l75 40q3 2 9 2q13 0 21 -11q12 -18 36 -29t47 -11q39 0 65 26t27 67v364h-119q-7 0 -12.5 5.5t-5.5 12.5v85q0 7 5.5 12t12.5 5h235q8 0 13 -5t5 -13v-466q0 -80 -43.5 -136.5t-108.5 -77.5q-33 -10 -74 -10
q-58 1 -111.5 33z" />
    <glyph glyph-name="K" unicode="K" horiz-adv-x="696" 
d="M85.5 5.5q-5.5 5.5 -5.5 12.5v664q0 8 5.5 13.5t12.5 5.5h108q7 0 12.5 -5.5t5.5 -13.5v-230l203 238q9 11 22 11h143q11 0 13 -4t-1 -8l-364 -426q-16 -19 -16 -48v-197q0 -7 -5 -12.5t-13 -5.5h-108q-7 0 -12.5 5.5zM451.5 5.5q-9.5 4.5 -15.5 13.5l-106 151
q-7 11 -7 18q0 9 8 19q8 9 18.5 21.5t20.5 23.5l21 25q6 8 14 8q9 0 15 -9l180 -255q2 -4 2 -7q0 -13 -18 -14h-102q-21 1 -30.5 5.5z" />
    <glyph glyph-name="L" unicode="L" horiz-adv-x="598" 
d="M101.5 6q-6.5 6 -6.5 15v659q0 8 6.5 14.5t14.5 6.5h108q9 0 15 -6.5t6 -14.5v-532q0 -8 6 -14.5t14 -6.5h242q9 0 15 -6t6 -14v-86q0 -9 -6 -15t-15 -6h-391q-8 0 -14.5 6z" />
    <glyph glyph-name="M" unicode="M" horiz-adv-x="740" 
d="M658 692.5q5 -5.5 5 -13.5v-660q0 -8 -5 -13t-12 -5h-99q-7 0 -12 5t-5 13v396q0 9 -4 9q-3 0 -9 -7q-16 -24 -52.5 -75t-53.5 -74q-10 -13 -16.5 -17t-21.5 -4h-17q-18 0 -24.5 3t-14.5 13l-109 153q-4 9 -9 9q-4 0 -4 -9v-124q0 -8 -5 -13t-12 -5h-98q-7 0 -12.5 5.5
t-5.5 12.5v387q0 8 5.5 13.5t12.5 5.5h100q3 0 7.5 -3.5t6.5 -7.5l152 -251q1 -2 5.5 -6t11.5 -4h1q7 0 11 5t5 7l151 248q3 5 6 8.5t8 3.5h1h100q7 0 12 -5.5z" />
    <glyph glyph-name="N" unicode="N" horiz-adv-x="692" 
d="M487 7l-4 5q-39 61 -127.5 198t-133.5 209q-6 7 -8 7t-2.5 -4t-0.5 -6l2 -118q0 -7 -5 -12.5t-13 -5.5h-97q-8 0 -13.5 5t-5.5 13v382q0 8 5.5 13.5t13.5 5.5h98q7 0 12 -6l242 -403q9 -17 15 -17q5 0 5 17l-1 390q0 8 5.5 13.5t12.5 5.5h106q8 0 13.5 -5.5t5.5 -13.5
v-660q0 -8 -5.5 -13t-13.5 -5h-92h-1h-1q-8 0 -12 5z" />
    <glyph glyph-name="O" unicode="O" horiz-adv-x="824" 
d="M88 199.5q-33 73.5 -33 152.5q0 62 20.5 121.5t61.5 108.5q49 60 115 92.5t139 36.5h2q8 0 13.5 -6t6.5 -15v-87q0 -19 -21 -21q-45 -4 -86 -25.5t-69 -57.5q-54 -66 -54 -149q0 -50 21 -96.5t60 -79.5q66 -54 148 -54q50 0 96 21t78 61q27 32 40.5 70.5t13.5 78.5
q0 57 -25 106q-5 10 -5 20q0 13 12 23q8 5 31 21t29 20q8 5 15 5q16 0 24 -15q48 -84 48 -181q0 -63 -21 -122.5t-62 -108.5q-49 -63 -122.5 -96.5t-153.5 -33.5q-63 0 -122 21.5t-105 62.5q-62 53 -95 126.5z" />
    <glyph glyph-name="P" unicode="P" horiz-adv-x="611" 
d="M85.5 5.5q-5.5 5.5 -5.5 12.5v349q0 8 5.5 13.5t12.5 5.5h221q38 0 65.5 27t27.5 65q0 39 -27.5 66t-65.5 27h-221q-7 0 -12.5 5.5t-5.5 13.5v92q0 8 5.5 13.5t12.5 5.5h221q60 0 111 -30t81 -81.5t30 -111.5t-30 -111t-81 -81t-111 -30h-106q-11 0 -15 -3t-4 -12v-223
q0 -8 -5.5 -13t-13.5 -5h-77q-7 0 -12.5 5.5z" />
    <glyph glyph-name="Q" unicode="Q" horiz-adv-x="819" 
d="M560 -72q-9 0 -13 7l-44 60q-6 7 -15 7q-5 0 -8 -1q-7 -2 -30.5 -5.5t-43.5 -3.5q-96 0 -176.5 48.5t-127.5 131t-47 179.5t47 179.5t127.5 130.5t176.5 48q92 0 172 -45t130.5 -122t55.5 -169v-3q0 -11 -4.5 -15t-14.5 -4h-81q-21 0 -22 20q-5 58 -39 107t-86 77
t-111 28q-62 0 -114.5 -31.5t-83.5 -85t-31 -115.5q0 -63 31 -117t83.5 -85.5t114.5 -31.5q21 0 45.5 7t42 14.5t22.5 9.5q11 6 18 6q10 0 18 -10l95 -138q3 -4 3 -10q0 -9 -7 -15l-73 -50q-4 -3 -10 -3z" />
    <glyph glyph-name="R" unicode="R" horiz-adv-x="640" 
d="M95.5 5q-5.5 5 -5.5 13v349q0 8 5.5 13.5t13.5 5.5h207q40 0 67.5 27t27.5 65q0 39 -27.5 66t-67.5 27h-84q-11 0 -18.5 -7.5t-7.5 -17.5v-25q0 -10 -7 -17.5t-18 -7.5h-66q-10 0 -17.5 7.5t-7.5 17.5v161q0 8 5.5 13.5t13.5 5.5h207q62 0 114 -30t82.5 -81t30.5 -112
q0 -52 -23.5 -98t-64.5 -77q-6 -4 -6 -10t1 -10l116 -259q4 -7 4 -13q0 -11 -14 -11h-82q-11 0 -16.5 2t-9.5 10l-104 234q-3 6 -8 8t-20 2h-85q-12 0 -18.5 -3.5t-6.5 -14.5v-220q0 -8 -5.5 -13t-13.5 -5h-78q-8 0 -13.5 5z" />
    <glyph glyph-name="S" unicode="S" horiz-adv-x="674" 
d="M508 342.5q37 -19.5 59.5 -54t22.5 -92.5q0 -56 -30.5 -99t-86.5 -67.5t-129 -24.5q-17 0 -41 4q-10 1 -14 5.5t-2 13.5l4 29q1 8 2 18.5t3 19.5q2 16 19 16l42 -1q50 0 81.5 23t31.5 57q0 25 -17 49q-11 14 -40 27t-79 29q-76 26 -123.5 48.5t-70.5 55.5q-28 44 -28 91
q0 49 28.5 93t79.5 73.5t117 36.5q48 2 94 -6t80 -24q31 -16 58 -39q5 -4 8 -9t2 -7q-5 -11 -34 -52l-12 -17q-3 -3 -9 -3q-5 0 -10 3q-41 23 -71 31q-35 10 -70 10q-41 0 -77 -14q-27 -13 -42.5 -31.5t-15.5 -37.5q0 -30 35 -52q14 -9 55.5 -28t70.5 -29q72 -26 109 -45.5z
M533 539q0 1 0.5 1h0.5zM180.5 138q1.5 -3 0.5 -7l-24 -67q-2 -5 -7 -7t-11 1q-34 15 -46 25q-5 5 -5 8q0 6 9 22.5t25 43.5q5 7 14 2l40 -16q3 -2 4.5 -5z" />
    <glyph glyph-name="T" unicode="T" horiz-adv-x="599" 
d="M147 15v540q0 10 -7 16.5t-17 6.5h-57q-5 0 -9 4t-4 10v93q0 6 4 10t9 4h437q5 0 9 -4t4 -10v-93q0 -6 -4 -10t-9 -4h-187q-10 0 -17 -7t-7 -16v-540q0 -6 -4 -9.5t-9 -3.5h-119q-13 0 -13 13z" />
    <glyph glyph-name="U" unicode="U" horiz-adv-x="659" 
d="M194.5 26q-56.5 33 -90 90t-33.5 124v194q0 8 5.5 13t12.5 5h94q8 0 13 -5t5 -13v-194q0 -50 34 -84.5t83 -34.5q38 0 70 16t51 43.5t19 59.5v444q0 7 5.5 12.5t13.5 5.5h92q8 0 13.5 -5.5t5.5 -12.5v-444q0 -68 -34.5 -124.5t-96 -89.5t-139.5 -33q-67 0 -123.5 33z
M76.5 584.5q-5.5 5.5 -5.5 12.5v87q0 8 5.5 13t12.5 5h94q8 0 13 -5t5 -13v-87q0 -7 -5 -12.5t-13 -5.5h-94q-7 0 -12.5 5.5z" />
    <glyph glyph-name="V" unicode="V" horiz-adv-x="671" 
d="M95 591l-24 87q-1 3 -1 8q0 15 14 15h90q19 0 22 -13q4 -13 12.5 -44t13.5 -52q1 -3 1 -8q0 -13 -19 -13h-81q-23 0 -28 20zM259 2.5q-5 2.5 -7 10.5l-76 279q-1 3 -1 9q0 13 16 13h85q15 0 20 -5.5t8 -15.5l24 -88q5 -16 8 -16t7 17q23 86 67 248t64 233q2 8 7.5 11
t14.5 3h91q7 0 11 -7t2 -16l-182 -665q-3 -13 -22 -13h-122q-10 0 -15 2.5z" />
    <glyph glyph-name="W" unicode="W" horiz-adv-x="875" 
d="M160 239q-3 0 -5 7l-84 432q-1 3 -1 8q0 15 12 15h100q16 0 19 -13l42 -235q1 -3 1 -10q0 -18 -5 -30q-11 -25 -35.5 -81t-37.5 -87q-2 -6 -6 -6zM209.5 3.5q-3.5 3.5 -3.5 9.5t3 13q22 60 71.5 195.5t83.5 232.5q3 8 8 13t16 5h99q21 0 30 -18q68 -189 75 -211
q5 -13 7 -13q3 0 6 14q13 80 36 228.5t33 214.5q2 8 6.5 11t12.5 3h101q6 0 9 -7t1 -16l-120 -665q-3 -13 -18 -13h-108q-8 0 -12.5 2.5t-6.5 10.5q-14 41 -45.5 135t-47.5 146q-1 5 -3.5 5t-4.5 -5l-93 -281q-3 -13 -19 -13h-108q-5 0 -8.5 3.5z" />
    <glyph glyph-name="X" unicode="X" horiz-adv-x="692" 
d="M72 12q0 8 4 13l197 316l-209 334q-4 7 -4 15q0 11 10 11l103 -1h6q17 0 22 -8l145 -234l146 234q3 5 9.5 6.5t20.5 1.5l100 1q10 0 10 -11q0 -8 -4 -15l-414 -664q-8 -11 -29 -11h-101q-12 0 -12 12zM479 11l-68 109q-6 11 -6 18q0 10 7 20q5 8 21.5 34.5t26 37.5
t16.5 11q6 0 10 -7l130 -209q4 -5 4 -13q0 -12 -12 -12h-101q-21 0 -28 11z" />
    <glyph glyph-name="Y" unicode="Y" horiz-adv-x="716" 
d="M72 681q-2 4 -2 8q0 12 15 12h95q17 0 21.5 -3t8.5 -10l15 -28q7 -14 63 -119q6 -14 6 -23q0 -11 -6 -23l-42 -77q-5 -11 -15 -11q-9 0 -14 10zM304.5 5.5q-5.5 5.5 -5.5 12.5v230q0 33 19.5 81.5t59.5 118.5q14 25 88 165l37 70q4 8 10 13t19 5h96q18 0 18 -10
q0 -4 -3 -10l-209 -382q-10 -18 -11 -43v-69v-169q0 -7 -5 -12.5t-13 -5.5h-88q-7 0 -12.5 5.5z" />
    <glyph glyph-name="Z" unicode="Z" horiz-adv-x="672" 
d="M75.5 591.5q-5.5 5.5 -5.5 12.5v78q0 8 5.5 13.5t12.5 5.5h496q7 0 12.5 -5.5t5.5 -13.5v-78q0 -7 -5 -12.5t-13 -5.5h-496q-7 0 -12.5 5.5zM110 3.5q-9 4.5 -13 11.5t-14.5 26.5t-13.5 27.5q-3 6 -3 12q0 12 12 24q97 105 196.5 214t136.5 150q5 5 13 5t12 -5l71 -62
q5 -5 5 -13t-5 -13l-243 -246q-10 -10 -10 -15q0 -8 20 -8l310 3q8 0 13 -5t5 -13v-79q0 -7 -5 -12.5t-13 -5.5h-456q-9 -1 -18 3.5z" />
    <glyph glyph-name="bracketleft" unicode="[" horiz-adv-x="412" 
d="M92 129q-8 8 -9 19l-3 172v53l7 378q1 11 9 19t19 8h203q6 0 10 -4t4 -10v-90q0 -5 -4 -9t-10 -4h-124l-5 -288l-1 -27l1 -27l3 -171q0 -11 -7.5 -19t-18.5 -8h-55q-11 0 -19 8zM96 -77q-8 8 -9 19l-1 63q0 11 8 19t19 8h205q6 0 10 -4t4 -10v-90q0 -5 -4 -9t-10 -4h-203
q-11 0 -19 8z" />
    <glyph glyph-name="bracketright" unicode="]" horiz-adv-x="413" 
d="M84.5 665q-4.5 4 -4.5 10v90q0 5 4.5 9t9.5 4h204q11 0 19 -8t8 -18l1 -64q1 -11 -7 -19t-19 -8h-206q-5 0 -9.5 4zM84.5 -81q-4.5 4 -4.5 10v90q0 5 4.5 9t9.5 4h124l6 288v54l-4 172q0 11 8 18.5t19 7.5h55q11 0 19 -8t8 -18l4 -172v-54l-8 -378q0 -11 -8 -19t-19 -8
h-204q-5 0 -9.5 4z" />
    <glyph glyph-name="a" unicode="a" horiz-adv-x="726" 
d="M64 3q-3 4 -2 9l177 673q2 6 7.5 10.5t12.5 4.5h208q6 0 12 -4t8 -10l177 -673v-3q0 -11 -10 -11h-98q-6 0 -12.5 4.5t-7.5 10.5l-49 186q-2 9 -10 15t-17 6h-194q-9 0 -17 -6t-10 -15l-49 -185q-1 -7 -7.5 -11.5t-12.5 -4.5h-98q-5 0 -8 4zM429 328q10 0 15.5 7t3.5 16
l-56 206q-1 8 -9 14t-17 6h-6q-9 0 -17 -6t-9 -14l-55 -206l-1 -5q0 -8 5 -13t14 -5h132z" />
    <glyph glyph-name="b" unicode="b" horiz-adv-x="640" 
d="M78 20v658q0 13 4 16.5t18 3.5h188q55 0 101.5 -27t74 -73.5t27.5 -102.5q0 -61 -33 -109q51 -29 80 -77t29 -104q0 -55 -27 -101.5t-74 -74t-103 -27.5l-259 -1q-26 0 -26 19zM290 409q35 0 60 25.5t25 60.5q0 36 -26 61.5t-61 25.5h-73q-21 0 -21 -27v-121
q0 -25 25 -25h71zM352 118q37 0 62 25t25 62t-25 62t-62 25h-133q-25 0 -25 -25v-125q0 -25 25 -25z" />
    <glyph glyph-name="c" unicode="c" horiz-adv-x="757" 
d="M241.5 39q-81.5 48 -129 130.5t-47.5 180.5q0 97 47.5 179.5t129 131t177.5 48.5q75 0 143 -30t118 -86q6 -6 6 -13q0 -6 -7 -13q-21 -17 -42 -35.5t-29 -25.5q-6 -6 -14 -6q-7 0 -13 6q-32 35 -74 53.5t-88 18.5q-60 0 -111.5 -31t-81.5 -83t-30 -114t30 -114t81.5 -83
t111.5 -31q43 0 83 17t72 49q10 8 22 8q10 0 16 -6q10 -8 28 -23.5t31 -27.5q11 -9 11 -22q0 -8 -6 -14q-50 -54 -116.5 -83t-140.5 -29q-96 0 -177.5 48z" />
    <glyph glyph-name="d" unicode="d" horiz-adv-x="724" 
d="M94.5 12.5q-8.5 8.5 -8.5 20.5v642q0 9 6 15.5t15 6.5h200q94 0 173.5 -46.5t126 -126.5t46.5 -174t-46.5 -173.5t-126 -126t-173.5 -46.5h-192q-12 0 -20.5 8.5zM307 133q59 0 109 29t79.5 79t29.5 109t-29.5 109t-79.5 79.5t-109 29.5h-80q-5 0 -8.5 -3.5t-3.5 -8.5
v-423h92z" />
    <glyph glyph-name="e" unicode="e" horiz-adv-x="651" 
d="M85.5 8.5q-5.5 5.5 -5.5 12.5v659q0 8 5.5 13t12.5 5h448q8 0 13 -5t5 -13v-84q0 -7 -5 -12.5t-13 -5.5h-323q-7 0 -12.5 -5t-5.5 -13v-147v-3q0 -9 4 -12.5t19 -3.5h250q7 0 12 -4.5t5 -11.5v-85q0 -7 -5 -11.5t-12 -4.5h-251q-13 0 -17.5 -7.5t-4.5 -15.5v-106
q0 -10 5.5 -17t22.5 -7h320q7 0 12.5 -5.5t5.5 -13.5v-84q0 -7 -5 -12.5t-13 -5.5h-455q-7 0 -12.5 5.5z" />
    <glyph glyph-name="f" unicode="f" horiz-adv-x="601" 
d="M83.5 4.5q-5.5 5.5 -5.5 12.5v665q0 8 5.5 13t12.5 5h419q8 0 13 -5t5 -13v-85q0 -7 -5 -12.5t-13 -5.5h-275q-10 0 -17.5 -7t-7.5 -18v-121q0 -10 7.5 -17.5t17.5 -7.5h186q10 0 17 -7.5t7 -18.5v-80q0 -11 -7 -18.5t-17 -7.5h-194q-7 0 -12.5 -5t-5.5 -13v-241
q0 -7 -5 -12.5t-13 -5.5h-100q-7 0 -12.5 5.5z" />
    <glyph glyph-name="g" unicode="g" horiz-adv-x="816" 
d="M235.5 35.5q-83.5 48.5 -132 132t-48.5 182.5t48.5 182.5t132 132t182.5 48.5q23 0 45 -3q9 -1 14 -8t3 -16l-16 -87q-3 -16 -20 -16l-26 1q-63 0 -117 -31.5t-85.5 -85.5t-31.5 -117t31.5 -117t85.5 -85.5t117 -31.5q73 0 128 41.5t81 110.5h-129q-8 0 -14 6t-6 14v73
q0 8 6 14t14 6h213q24 0 37 -8t13 -23q0 -100 -44 -183t-122.5 -131.5t-176.5 -48.5q-99 0 -182.5 48.5z" />
    <glyph glyph-name="h" unicode="h" horiz-adv-x="652" 
d="M79 4q-4 4 -4 10v673q0 6 4 10t10 4h105q6 0 10 -4.5t4 -9.5v-261q0 -9 7 -16t16 -7h190q9 0 15.5 6.5t7.5 16.5v261q0 5 4 9.5t10 4.5h105q6 0 10 -4t4 -10v-673q0 -6 -4 -10t-10 -4h-105q-6 0 -10 4.5t-4 9.5v232q-1 10 -7.5 16.5t-15.5 6.5h-190q-9 0 -15.5 -6
t-7.5 -16v-233q0 -5 -4 -9.5t-10 -4.5h-105q-6 0 -10 4z" />
    <glyph glyph-name="i" unicode="i" horiz-adv-x="361" 
d="M115.5 5.5q-5.5 5.5 -5.5 12.5v664q0 8 6 13.5t13 5.5h104q7 0 12.5 -5.5t5.5 -13.5v-664q0 -7 -5 -12.5t-13 -5.5h-104q-8 0 -13.5 5.5z" />
    <glyph glyph-name="j" unicode="j" horiz-adv-x="589" 
d="M164 26q-54 32 -83 78q-3 5 -3 11q0 5 2.5 10.5t6.5 7.5q14 8 37.5 20t37.5 19q5 3 10 3q10 0 21 -11q13 -18 36.5 -29t46.5 -11q39 0 64.5 26t25.5 66v364h-211q-10 0 -17 7.5t-7 17.5v70q0 10 7 17.5t17 7.5h328q8 0 13 -5t5 -13v-466q0 -80 -43.5 -136.5t-108.5 -76.5
q-33 -10 -73 -10q-58 1 -112 33z" />
    <glyph glyph-name="k" unicode="k" horiz-adv-x="692" 
d="M89 6q-4 4 -4 9v669q0 8 3 11t10 3h105q5 0 9 -4t4 -10v-204q0 -7 4.5 -11.5t10.5 -4.5q7 0 13 6l186 219q4 5 7.5 7t10.5 2h144q6 0 7.5 -2.5t-2.5 -7.5l-256 -305q-6 -6 -1 -12q105 -139 179.5 -246t76.5 -110q1 -1 1 -4t-3.5 -6t-9.5 -3h-103q-17 0 -26 4t-17 13
l-178 254q-5 6 -11 6q-5 0 -9 -4q-16 -16 -20 -27t-4 -34v-199q0 -5 -4 -9t-9 -4h-105q-5 0 -9 4z" />
    <glyph glyph-name="l" unicode="l" horiz-adv-x="578" 
d="M86.5 6q-6.5 6 -6.5 15v659q0 8 6.5 14.5t14.5 6.5h103q9 0 15 -6.5t6 -14.5v-527q0 -8 6 -14.5t14 -6.5h242q9 0 15 -6t6 -14v-91q0 -9 -6 -15t-15 -6h-386q-8 0 -14.5 6z" />
    <glyph glyph-name="m" unicode="m" horiz-adv-x="747" 
d="M79 5.5q-5 5.5 -5 12.5v663q0 7 5 12.5t12 5.5h98q10 0 15 -10l152 -252q1 -2 5.5 -6t11.5 -4h2q7 0 10.5 4.5t4.5 6.5l151 250q7 11 16 11h99q7 0 12 -5.5t5 -12.5v-663q0 -7 -5 -12.5t-12 -5.5h-98q-8 0 -13 5t-5 13v397q0 10 -4 10t-9 -8l-105 -149q-9 -13 -15.5 -17
t-22.5 -4h-17q-19 0 -26 3t-14 13l-108 153q-6 9 -9 9q-4 0 -4 -9v-398q0 -7 -5 -12.5t-13 -5.5h-97q-7 0 -12 5.5z" />
    <glyph glyph-name="n" unicode="n" horiz-adv-x="668" 
d="M76.5 6q-4.5 4 -4.5 10v669q0 6 4.5 10t10.5 4h102q7 0 11 -7l237 -401q11 -20 18 -20q8 0 8 22l-2 392q0 6 4.5 10t10.5 4h105q6 0 10.5 -4t4.5 -10v-669q0 -6 -4.5 -10t-10.5 -4h-71q-18 0 -25 3t-15 16l-252 401q-6 9 -11 9q-8 0 -8 -14l2 -401q0 -6 -4.5 -10t-9.5 -4
h-100q-6 0 -10.5 4z" />
    <glyph glyph-name="o" unicode="o" horiz-adv-x="828" 
d="M149.5 109.5q-49.5 55.5 -72.5 123.5l-2 5q-18 54 -18 112q0 62 21 122t63 109q55 59 111.5 90.5t142.5 36.5h3q84 5 164 -30q50 -22 96.5 -64.5t67.5 -84.5q47 -82 47 -178q0 -56 -17 -109.5t-50 -99.5q-25 -35 -54.5 -61.5t-72.5 -49.5q-77 -39 -166 -39q-76 0 -145 30
q-69 32 -118.5 87.5zM585 198q27 31 39 59q20 46 20 94q0 66 -36 123.5t-99 85.5q-46 20 -95 20q-44 0 -84.5 -16t-72.5 -47l-17 -18q-27 -33 -40.5 -71t-13.5 -78q0 -50 21 -96.5t61 -78.5q65 -54 148 -54q55 0 103 24q39 22 66 53z" />
    <glyph glyph-name="p" unicode="p" horiz-adv-x="620" 
d="M84.5 5.5q-5.5 5.5 -5.5 12.5v663q0 8 5.5 13t12.5 5h233q60 0 111 -29.5t80.5 -80.5t29.5 -111q0 -61 -29.5 -111.5t-80 -80t-111.5 -29.5h-100q-12 0 -18.5 -4.5t-6.5 -15.5v-219q0 -7 -5 -12.5t-13 -5.5h-90q-7 0 -12.5 5.5zM330 385q38 0 65.5 27t27.5 66
q0 38 -27.5 65t-65.5 27h-101q-24 0 -24 -20v-165h125z" />
    <glyph glyph-name="q" unicode="q" horiz-adv-x="813" 
d="M569 -77q-14 0 -20 11l-43 63q-4 5 -7 7t-10 0q-42 -11 -83 -11q-73 0 -143 32q-68 30 -116.5 85t-73.5 128q-18 54 -18 112q0 62 20.5 121t61.5 108q55 63 114.5 93t134.5 35q101 4 186.5 -42t136.5 -132q49 -94 49 -186q0 -77 -35.5 -148.5t-103.5 -132.5q-4 -4 -4 -6
q0 -3 3 -9l32 -47q5 -7 5 -14q0 -14 -11 -20l-61 -43q-5 -4 -14 -4zM529.5 154q17.5 8 43.5 35t43 62q19 41 19 90q0 69 -36.5 130.5t-98.5 90.5q-41 19 -90 19q-50 0 -96.5 -21t-81.5 -61q-26 -32 -39.5 -70t-13.5 -78q0 -51 21 -98t61 -81q31 -26 68.5 -39.5t76.5 -13.5
q56 0 105 26q1 1 18.5 9z" />
    <glyph glyph-name="r" unicode="r" horiz-adv-x="630" 
d="M83.5 4.5q-5.5 5.5 -5.5 12.5v665q0 7 5.5 12.5t13.5 5.5h210q62 0 114.5 -29.5t83 -80.5t30.5 -112q0 -52 -24 -97t-65 -78q-6 -5 -6 -13q0 -3 1 -5t1 -3l116 -259q3 -7 3 -13q0 -11 -13 -11h-88q-11 0 -16.5 2t-9.5 10l-105 234q-2 6 -7.5 8t-19.5 3h-80
q-15 0 -20.5 -4t-5.5 -15v-220q0 -7 -5.5 -12.5t-13.5 -5.5h-80q-8 0 -13.5 5.5zM307 385q39 0 67 27.5t28 65.5q0 39 -28 66t-67 27h-93q-18 0 -18 -20v-150q0 -7 4 -11.5t11 -4.5h96z" />
    <glyph glyph-name="s" unicode="s" horiz-adv-x="667" 
d="M193.5 28q-80.5 25 -113.5 55q-6 6 -6 15q0 10 8 25t27 42q7 10 17 10q3 0 9 -2q71 -36 117.5 -45.5t98.5 -9.5q51 0 80.5 17.5t29.5 46.5q0 24 -21 51q-13 17 -41.5 28.5t-71.5 23.5q-5 1 -26 7q-81 24 -126 57.5t-60 84.5q-11 35 -11 64q0 51 27 93.5t78 70.5t120 35
q9 1 28 1q76 0 149 -29q78 -39 69 -66q-6 -15 -23.5 -37.5t-22.5 -29.5q-3 -4 -9 -4q-10 0 -34 12q-32 15 -53 19q-46 10 -75 10q-32 0 -65 -11q-26 -13 -40 -30.5t-14 -36.5q0 -28 28 -49q31 -22 66.5 -37t79.5 -31q48 -18 77.5 -32.5t48.5 -38.5q20 -19 33.5 -54t13.5 -67
q0 -56 -30 -97t-83 -63.5t-122 -22.5q-77 0 -157.5 25z" />
    <glyph glyph-name="t" unicode="t" horiz-adv-x="714" 
d="M288.5 4q-3.5 4 -3.5 9v542q0 9 -7.5 16.5t-17.5 7.5h-168q-4 0 -8 4t-4 8v97q0 5 3.5 8t8.5 3h528q6 0 10 -4t4 -9v-94q0 -5 -4 -9t-10 -4h-166q-10 0 -17 -7t-7 -17v-542q0 -5 -3.5 -9t-9.5 -4h-119q-6 0 -9.5 4z" />
    <glyph glyph-name="u" unicode="u" horiz-adv-x="681" 
d="M205 25q-57 33 -91 89.5t-34 123.5v443q0 8 5.5 13.5t12.5 5.5h96q7 0 12.5 -5.5t5.5 -13.5v-443q0 -49 34 -83.5t83 -34.5q37 0 69.5 16t51.5 43t19 59v443q0 8 5.5 13.5t12.5 5.5h96q7 0 12.5 -5.5t5.5 -13.5v-443q0 -68 -35 -124t-97 -89t-140 -33q-67 0 -124 33z" />
    <glyph glyph-name="v" unicode="v" horiz-adv-x="666" 
d="M600 687q0 -5 -1 -8l-182 -666q-2 -8 -7 -10.5t-15 -2.5h-123q-10 0 -15.5 2.5t-7.5 10.5l-181 666q-1 3 -1 9q0 13 13 13h91q11 0 16.5 -2.5t7.5 -10.5q19 -71 63 -232t67 -249q5 -18 8 -18q4 0 8 18q23 88 67 249t63 232q3 8 8.5 10.5t15.5 2.5h92q13 0 13 -14z" />
    <glyph glyph-name="w" unicode="w" horiz-adv-x="870" 
d="M203.5 2.5q-4.5 2.5 -5.5 10.5l-129 664q-1 3 -1 8q0 14 11 14h102q15 0 18 -12l79 -445q3 -13 5 -13t7 14q3 11 25 74.5t38 110.5l9 25q3 9 7.5 13.5t15.5 4.5h99q23 0 29 -18q66 -177 76 -211q5 -14 7 -14q3 0 6 15q13 81 36 229.5t33 213.5q1 8 5.5 10.5t12.5 2.5h102
q6 0 9 -6.5t1 -15.5l-120 -664q-3 -13 -18 -13h-108q-8 0 -12.5 2.5t-5.5 10.5q-14 40 -52.5 150.5t-40.5 121.5q-2 10 -5 10q-2 0 -4 -10q-1 -6 -39.5 -118.5t-52.5 -153.5q-3 -13 -19 -13h-108q-8 0 -12.5 2.5z" />
    <glyph glyph-name="x" unicode="x" 
d="M67 14q0 8 4 13l196 315l-208 334q-4 5 -4 14q0 11 10 11h103q21 0 26 -8l146 -233l145 233q7 8 27 8h103q10 0 10 -11q0 -4 -4 -14l-208 -334l196 -315q4 -5 4 -13q0 -12 -12 -12h-101q-20 0 -28 11l-132 212l-133 -212q-7 -11 -28 -11h-100q-12 0 -12 12z" />
    <glyph glyph-name="y" unicode="y" horiz-adv-x="683" 
d="M282.5 6.5q-5.5 5.5 -5.5 12.5v168v70q0 21 -10 43q-14 24 -136 264l-60 117q-2 4 -2 7q0 12 15 12h103q10 0 14.5 -3.5t8.5 -11.5l132 -273l134 276q3 5 6.5 8.5t12.5 3.5h105q21 0 14 -16q-30 -59 -95.5 -187t-101.5 -197q-10 -18 -11 -43v-238q0 -7 -5 -12.5t-13 -5.5
h-93q-7 0 -12.5 5.5z" />
    <glyph glyph-name="z" unicode="z" horiz-adv-x="673" 
d="M119 7q-7 4 -11 14l-24 54q-5 12 -5 17q0 9 7 17l322 437q6 9 6 17q0 18 -24 18h-298q-8 0 -14 6t-6 14v78q0 8 6 14t14 6h487q8 0 14 -6t6 -14v-74q0 -13 -9 -27l-319 -426q-8 -11 -8 -19q0 -7 6 -11t17 -4l294 2q9 0 15 -6t6 -15v-76q0 -8 -6 -14t-14 -6h-441
q-14 0 -21 4z" />
    <glyph glyph-name="exclamdown" unicode="&#xa1;" horiz-adv-x="290" 
d="M92 549.5q-22 21.5 -22 52.5t22 53t53 22t53 -22t22 -53t-22 -52.5t-53 -21.5t-53 21.5zM84 6q-6 6 -6 15l8 458q1 9 7 15t15 6h79q9 0 15 -6t7 -15l8 -458q0 -9 -6 -15t-14 -6h-98q-9 0 -15 6z" />
    <glyph glyph-name="sterling" unicode="&#xa3;" 
 />
    <glyph glyph-name="yen" unicode="&#xa5;" horiz-adv-x="703" 
d="M128 565l-56 101l-2 8q0 12 15 12h93q14 0 19.5 -2.5t7 -5.5t2.5 -4l76 -145q6 -9 6 -22q0 -12 -6 -22l-40 -76q-6 -10 -15 -10t-14 9zM299.5 5.5q-5.5 5.5 -5.5 12.5v102h-96q-6 0 -10 4.5t-4 10.5v61q0 6 4 10.5t10 4.5h96v23h-96q-6 0 -10 4.5t-4 10.5v61q0 6 4 10.5
t10 4.5h116q9 21 80.5 156.5t99.5 187.5q9 17 28 17h94q17 0 17 -10q0 -4 -1 -6t-1 -4q-2 -6 -187 -341h61q6 0 10.5 -4.5t4.5 -10.5v-61q0 -6 -4.5 -10.5t-10.5 -4.5h-90v-23h90q6 0 10.5 -4.5t4.5 -10.5v-61q0 -6 -4.5 -10.5t-10.5 -4.5h-90v-102q0 -7 -5 -12.5t-12 -5.5
h-86q-7 0 -12.5 5.5z" />
    <glyph glyph-name="questiondown" unicode="&#xbf;" horiz-adv-x="584" 
d="M257 576.5q-21 20.5 -21 49.5t21 50t50 21t49.5 -21t20.5 -50t-20.5 -49.5t-49.5 -20.5t-50 20.5zM185.5 25q-44.5 22 -73.5 55t-38 68q-5 25 -5 43q0 67 45.5 118.5t123.5 74.5q12 4 12 19v115q0 14 14 14h86q13 0 13 -11v-226q0 -11 -15.5 -18t-49.5 -17
q-29 -9 -44.5 -14.5t-24.5 -14.5q-20 -18 -20 -48q0 -36 30 -52q18 -9 43 -9q60 0 140 43q8 4 17 4q13 0 19 -8q35 -45 44 -65q2 -6 2 -10q0 -7 -4 -13.5t-10 -11.5q-30 -27 -92.5 -44.5t-116.5 -16.5q-51 3 -95.5 25z" />
    <glyph glyph-name="Euro" unicode="&#x20ac;" horiz-adv-x="788" 
d="M75 370.5q-5 4.5 -5 11.5v68q0 7 5 12t12 5h47q23 69 71.5 123t114.5 84.5t140 30.5t140 -30t114 -84q4 -4 4 -10t-5 -10l-70 -60q-4 -4 -11 -4q-5 0 -9 4q-31 34 -73.5 53t-89.5 19q-61 0 -113 -31.5t-81 -84.5h174q7 0 11.5 -5t4.5 -12v-68q0 -7 -4.5 -11.5t-11.5 -4.5
h-353q-7 0 -12 4.5zM267 53.5q-86 60.5 -125 157.5h-55q-7 0 -12 5t-5 12v68q0 7 5 12t12 5h353q7 0 11.5 -5t4.5 -12v-68q0 -7 -4.5 -12t-11.5 -5h-162q31 -44 79 -70t103 -26q45 0 84.5 17t71.5 48q8 7 18 7t14 -4l58 -50q9 -7 9 -18q0 -7 -5 -12q-47 -52 -112 -81
t-138 -29q-107 0 -193 60.5z" />
    <glyph glyph-name="minus" unicode="&#x2212;" horiz-adv-x="508" 
d="M65.5 227.5q-5.5 5.5 -5.5 12.5v81q0 8 5.5 13t12.5 5h352q8 0 13 -5t5 -13v-81q0 -7 -5 -12.5t-13 -5.5h-352q-7 0 -12.5 5.5z" />
    <glyph glyph-name="Aacute.001" horiz-adv-x="634" 
d="M229.5 747q-3.5 5 -2.5 11l22 101q1 6 6.5 11t12.5 5h37q6 0 10 -5t3 -11l-22 -101q-1 -6 -6.5 -11t-12.5 -5h-37q-7 0 -10.5 5zM439 4.5q-6 4.5 -8 10.5l-50 186q-3 9 -11 15t-17 6h-151q-7 0 -11.5 4.5t-4.5 10.5v77q0 6 4.5 11t11.5 5h120q9 0 14.5 6.5t2.5 15.5
l-56 204q-2 8 -10 14t-17 6h-7q-8 0 -16 -6t-10 -14l-37 -134q-2 -6 -7.5 -9t-12.5 -1l-94 23q-6 1 -9.5 7t-1.5 12l63 231q2 6 8.5 11t12.5 5h215q6 0 13 -4.5t9 -10.5l184 -672v-2q0 -12 -12 -12h-102q-7 0 -13 4.5z" />
    <glyph glyph-name="G.001" horiz-adv-x="836" 
d="M758 373q13 -8 13 -23q0 -100 -44 -183t-122.5 -131.5t-176.5 -48.5q-99 0 -182.5 48.5t-132 132t-48.5 182.5t48.5 182.5t132 132t182.5 48.5q22 0 45 -3q9 -1 14 -8t3 -16l-16 -87q-3 -16 -20 -16l-26 1q-63 0 -117 -31.5t-85.5 -85.5t-31.5 -117t31.5 -117t85.5 -85.5
t117 -31.5q73 0 128 41.5t81 110.5h-129q-8 0 -14 6t-6 14v73q0 8 6 14t14 6h213q24 0 37 -8z" />
    <glyph glyph-name="unbenannt" 
 />
    <glyph glyph-name="unbenannt.001" 
 />
    </font>
</defs>
</svg>
